# xmcd CD database file
#
# Track frame offsets:
#	150
#	22800
#	45826
#	61503
#	79433
#	94095
#	108570
#	124995
#
# Disc length: 1902 seconds
#
# Revision: 1
# Processed by: cddbd v1.5.2PL0 Copyright (c) Steve Scherf et al.
# Submitted via: jetAudio 7
#
DISCID=59076c08
DTITLE=Mojtaba Kabiri - Nim Negah 
DYEAR=1900
DGENRE=Pop
TTITLE0=01 - Berkeh
TTITLE1=02 - Etefag-e Sadeh
TTITLE2=03 - Nim Negah
TTITLE3=04 - Bahoonehay-e RangaRang
TTITLE4=05 - Ashegam Naboodi
TTITLE5=06 - Lahzeh Shomari
TTITLE6=07 - Gheseh Eshgh
TTITLE7=08 - Khater Jam
EXTD=
EXTT0=
EXTT1=
EXTT2=
EXTT3=
EXTT4=
EXTT5=
EXTT6=
EXTT7=
PLAYORDER=
